<svg xmlns="http://www.w3.org/2000/svg" width="1200" height="412" viewBox="0 0 1200 412" preserveAspectRatio="xMidYMid slice">
  <!--
    Budget Tracker banner. Soft palette:
      mint #dCEbe2  teal #cfe6e4  periwinkle #d8e4ee
      sage #7fb89a  deep teal #5aa39b  ink #2c4a3e  muted #5f8a78  amber #e8c98c
  -->
  <defs>
    <linearGradient id="bg" x1="0%" y1="0%" x2="100%" y2="100%">
      <stop offset="0%" stop-color="#dcebe2"/>
      <stop offset="55%" stop-color="#cfe6e4"/>
      <stop offset="100%" stop-color="#d8e4ee"/>
    </linearGradient>
    <radialGradient id="glow-left" cx="20%" cy="35%" r="55%">
      <stop offset="0%" stop-color="#7fb89a" stop-opacity="0.22"/>
      <stop offset="60%" stop-color="#5aa39b" stop-opacity="0.06"/>
      <stop offset="100%" stop-color="#ffffff" stop-opacity="0"/>
    </radialGradient>
    <radialGradient id="glow-right" cx="85%" cy="65%" r="55%">
      <stop offset="0%" stop-color="#9fcfd2" stop-opacity="0.20"/>
      <stop offset="100%" stop-color="#ffffff" stop-opacity="0"/>
    </radialGradient>
    <radialGradient id="logo-aura" cx="50%" cy="50%" r="50%">
      <stop offset="0%" stop-color="#7fb89a" stop-opacity="0.40"/>
      <stop offset="45%" stop-color="#5aa39b" stop-opacity="0.14"/>
      <stop offset="100%" stop-color="#ffffff" stop-opacity="0"/>
    </radialGradient>
    <linearGradient id="ic-bg" x1="0%" y1="0%" x2="100%" y2="100%">
      <stop offset="0%" stop-color="#93c4ad"/>
      <stop offset="100%" stop-color="#74b1ac"/>
    </linearGradient>
    <linearGradient id="ic-bar" x1="0%" y1="100%" x2="0%" y2="0%">
      <stop offset="0%" stop-color="#6fae93"/>
      <stop offset="100%" stop-color="#5aa39b"/>
    </linearGradient>
  </defs>

  <rect width="1200" height="412" fill="url(#bg)"/>
  <rect width="1200" height="412" fill="url(#glow-left)"/>
  <rect width="1200" height="412" fill="url(#glow-right)"/>

  <!-- soft sage dot texture -->
  <g fill="#5f9379">
    <circle cx="86" cy="62" r="1.4" opacity="0.30"/>
    <circle cx="214" cy="38" r="1.1" opacity="0.24"/>
    <circle cx="358" cy="84" r="1.3" opacity="0.28"/>
    <circle cx="512" cy="46" r="1.0" opacity="0.22"/>
    <circle cx="708" cy="58" r="1.2" opacity="0.26"/>
    <circle cx="884" cy="32" r="1.4" opacity="0.30"/>
    <circle cx="1024" cy="74" r="1.1" opacity="0.24"/>
    <circle cx="1138" cy="36" r="1.0" opacity="0.22"/>

    <circle cx="46" cy="178" r="1.2" opacity="0.24"/>
    <circle cx="172" cy="232" r="1.0" opacity="0.20"/>
    <circle cx="288" cy="146" r="0.9" opacity="0.18"/>
    <circle cx="406" cy="270" r="1.1" opacity="0.22"/>
    <circle cx="780" cy="218" r="0.9" opacity="0.18"/>
    <circle cx="932" cy="262" r="1.2" opacity="0.24"/>
    <circle cx="1080" cy="178" r="1.0" opacity="0.20"/>
    <circle cx="1170" cy="248" r="1.1" opacity="0.22"/>

    <circle cx="118" cy="356" r="1.0" opacity="0.20"/>
    <circle cx="246" cy="386" r="0.9" opacity="0.18"/>
    <circle cx="402" cy="362" r="1.1" opacity="0.22"/>
    <circle cx="540" cy="394" r="0.9" opacity="0.18"/>
    <circle cx="746" cy="380" r="1.0" opacity="0.20"/>
    <circle cx="908" cy="354" r="0.9" opacity="0.18"/>
    <circle cx="1062" cy="392" r="1.0" opacity="0.20"/>

    <circle cx="320" cy="218" r="0.7" opacity="0.16"/>
    <circle cx="558" cy="194" r="0.7" opacity="0.16"/>
    <circle cx="690" cy="172" r="0.6" opacity="0.14"/>
    <circle cx="852" cy="208" r="0.6" opacity="0.14"/>
    <circle cx="1006" cy="246" r="0.6" opacity="0.14"/>
    <circle cx="142" cy="118" r="0.7" opacity="0.16"/>
    <circle cx="958" cy="118" r="0.7" opacity="0.16"/>
  </g>

  <!-- icon (the assets/icon.svg artwork, scaled and centered) -->
  <g transform="translate(600 118)">
    <circle r="78" fill="url(#logo-aura)"/>
    <g transform="translate(-48 -48) scale(1.5)">
      <rect x="16" y="15" width="34" height="38" rx="5" fill="#1d3a30" opacity="0.10"/>
      <rect x="15" y="13" width="34" height="38" rx="5" fill="#ffffff"/>
      <rect x="15" y="13" width="34" height="10" rx="5" fill="#7fb89a"/>
      <rect x="15" y="18" width="34" height="5" fill="#7fb89a"/>
      <g stroke="#c2d8cc" stroke-width="2" stroke-linecap="round">
        <line x1="20" y1="29" x2="44" y2="29"/>
        <line x1="20" y1="34" x2="38" y2="34"/>
      </g>
      <g fill="url(#ic-bar)">
        <rect x="20" y="43" width="4" height="4" rx="1.2"/>
        <rect x="27" y="40" width="4" height="7" rx="1.2"/>
        <rect x="34" y="37" width="4" height="10" rx="1.2"/>
      </g>
      <circle cx="46" cy="15" r="7.5" fill="#e8c98c" stroke="#ffffff" stroke-width="2"/>
      <text x="46" y="18.4" text-anchor="middle" font-family="system-ui, -apple-system, 'Segoe UI', Roboto, Arial, sans-serif" font-size="9" font-weight="700" fill="#8a6a2e">$</text>
    </g>
  </g>

  <text x="600" y="266"
        text-anchor="middle"
        font-family="system-ui, -apple-system, 'Segoe UI', Roboto, 'Helvetica Neue', Arial, sans-serif"
        font-size="64"
        font-weight="600"
        fill="#2c4a3e"
        letter-spacing="-0.5">Budget Tracker</text>

  <text x="600" y="308"
        text-anchor="middle"
        font-family="system-ui, -apple-system, 'Segoe UI', Roboto, 'Helvetica Neue', Arial, sans-serif"
        font-size="13"
        font-weight="500"
        fill="#5aa39b"
        letter-spacing="3.2">HEADLESS MONTHLY FINANCIAL AUTOMATION</text>

  <line x1="380" y1="336" x2="820" y2="336" stroke="#7fb89a" stroke-width="1" opacity="0.45"/>

  <g font-family="system-ui, -apple-system, 'Segoe UI', Roboto, 'Helvetica Neue', Arial, sans-serif"
     font-size="11"
     font-weight="600"
     fill="#5f8a78"
     letter-spacing="2.6"
     opacity="0.8">
    <text x="430" y="376" text-anchor="middle">SYNC</text>
    <text x="600" y="376" text-anchor="middle">BACKFILL</text>
    <text x="770" y="376" text-anchor="middle">NOTIFY</text>
  </g>
</svg>
